<svg xmlns="http://www.w3.org/2000/svg" xmlns:xlink="http://www.w3.org/1999/xlink" viewBox="0 0 1920 1005" xmlns:v="https://vecta.io/nano"><g fill="#070e20"><path d="M1809 381l-17.88-17.88a13.68 13.68 0 0 1 0-19.35l17.88-17.88h0l110.5-110.47V180.8l-16 16a34.16 34.16 0 0 1-14.15 5.09h-93.86l41.78 41.78a13.68 13.68 0 0 1 0 19.35L1819.36 281a13.7 13.7 0 0 1-19.35 0l-103.56-103.61a13.71 13.71 0 0 1 0-19.35l17.89-17.89a13.56 13.56 0 0 1 6.46-3.61 13.6 13.6 0 0 1 7.53-2.27h93.22l-41-41a13.71 13.71 0 0 1 0-19.35l17.9-17.92a13.69 13.69 0 0 1 19.34 0l101.71 101.75v-31.28L1811 18h0L1793.15.12c-.2-.2-.38-.41-.56-.62h-51.37a14 14 0 0 1-1.37 1.62L1722 19a13.57 13.57 0 0 1-8.71 4 13.55 13.55 0 0 1-5.44 1.14H1614l41.78 41.78a13.68 13.68 0 0 1 0 19.35l-17.88 17.88a13.68 13.68 0 0 1-19.35 0L1515-.45h-14l110.57 110.56a13.68 13.68 0 0 1 0 19.35l-17.89 17.89a13.69 13.69 0 0 1-19.34 0L1446 19h0l-17.85-17.88a14 14 0 0 1-1.37-1.62h-49.89a13.79 13.79 0 0 1-2 2.62L1357 20a13.57 13.57 0 0 1-8.71 4 13.55 13.55 0 0 1-5.44 1.14H1249l41.78 41.78a13.68 13.68 0 0 1 0 19.35l-17.88 17.88a13.68 13.68 0 0 1-19.35 0L1150 .55l-1-1h-14l111.57 111.56a13.68 13.68 0 0 1 0 19.35l-17.89 17.89a13.69 13.69 0 0 1-19.34 0L1081 20h0l-17.85-17.88a13.79 13.79 0 0 1-2-2.62h-48.67a13.88 13.88 0 0 1-2.59 3.62L992 21a13.57 13.57 0 0 1-8.71 4 13.55 13.55 0 0 1-5.44 1.14H884l41.78 41.78a13.69 13.69 0 0 1 0 19.35l-17.88 17.88a13.68 13.68 0 0 1-19.35 0L785 1.55a13.45 13.45 0 0 1-1.68-2H769l112.56 112.51a13.68 13.68 0 0 1 0 19.35l-17.89 17.89a13.69 13.69 0 0 1-19.34 0L716 21h0L698.15 3.12a13.88 13.88 0 0 1-2.59-3.62h-51.12a13.88 13.88 0 0 1-2.59 3.62L624 21a13.57 13.57 0 0 1-8.71 4 13.55 13.55 0 0 1-5.44 1.14H516l41.78 41.78a13.69 13.69 0 0 1 0 19.35l-17.88 17.88a13.68 13.68 0 0 1-19.35 0L417 1.55a13.45 13.45 0 0 1-1.68-2H401l112.56 112.51a13.68 13.68 0 0 1 0 19.35l-17.89 17.89a13.69 13.69 0 0 1-19.34 0L348 21h0L330.15 3.12a13.88 13.88 0 0 1-2.59-3.62h-47.67a13.65 13.65 0 0 1-3 4.62L259 22a13.57 13.57 0 0 1-8.71 4 13.55 13.55 0 0 1-5.44 1.14H151l41.78 41.78a13.69 13.69 0 0 1 0 19.35l-17.88 17.88a13.68 13.68 0 0 1-19.35 0L52 2.55a13.61 13.61 0 0 1-2.29-3H35l113.56 113.51a13.68 13.68 0 0 1 0 19.35l-17.89 17.89a13.69 13.69 0 0 1-19.34 0L-.5 38.47v31.28l93.85 93.85a13.69 13.69 0 0 1 0 19.35l-17.88 17.89a13.62 13.62 0 0 1-8.71 4 13.72 13.72 0 0 1-5.44 1.13H-.5v32l9.74 9.74a13.69 13.69 0 0 1 0 19.35L-.5 276.8v34.62l109.83-109.83a13.69 13.69 0 0 1 19.34 0l17.89 17.89a13.66 13.66 0 0 1 0 19.34L27.94 357.44l118.62 118.62a13.68 13.68 0 0 1 0 19.35l-17.89 17.89a13.69 13.69 0 0 1-19.34 0L-.5 403.47v31.28l91.85 91.85a13.69 13.69 0 0 1 0 19.35l-17.88 17.89a13.62 13.62 0 0 1-8.71 4 13.72 13.72 0 0 1-5.44 1.13H-.5v34l7.74 7.74a13.69 13.69 0 0 1 0 19.35L-.5 637.8v30.62l109.83-109.83a13.66 13.66 0 0 1 19.34 0l17.89 17.89a13.66 13.66 0 0 1 0 19.34L27.94 714.44l118.62 118.62a13.68 13.68 0 0 1 0 19.35l-17.89 17.89a13.69 13.69 0 0 1-19.34 0L-.5 760.47v31.28l91.85 91.85a13.69 13.69 0 0 1 0 19.35l-17.88 17.89a13.62 13.62 0 0 1-8.71 4 13.72 13.72 0 0 1-5.44 1.13H-.5v34l7.74 7.74a13.69 13.69 0 0 1 0 19.35L-.5 994.8v9.7h24.92l82.91-82.91a13.66 13.66 0 0 1 19.34 0l17.89 17.89a13.66 13.66 0 0 1 0 19.34l-45.68 45.68h36.24l-3.06-3.06a13.66 13.66 0 0 1 0-19.34l17.88-17.89a13.68 13.68 0 0 1 19.35 0l40.29 40.29h37.62l-84.67-84.66L144.65 902a13.69 13.69 0 0 1 0-19.35l146.18-146.22a13.66 13.66 0 0 1 19.34 0l17.89 17.88a13.68 13.68 0 0 1 0 19.35L209.44 892.28l112.22 112.22h14l-.66-.5-103.55-103.61a13.68 13.68 0 0 1 0-19.35l17.89-17.89a13.56 13.56 0 0 1 6.46-3.61 13.6 13.6 0 0 1 7.53-2.27h93.22l-41-41a13.71 13.71 0 0 1 0-19.35L333.44 779a13.7 13.7 0 0 1 19.35 0l103.56 103.6a13.69 13.69 0 0 1 0 19.35l-17.88 17.89a13.62 13.62 0 0 1-8.71 4 13.72 13.72 0 0 1-5.44 1.13h-93.86l41.78 41.78a13.69 13.69 0 0 1 0 19.35l-17.88 17.9-.61.55h34.67l83.91-83.91a13.66 13.66 0 0 1 19.34 0l17.89 17.89a13.66 13.66 0 0 1 0 19.34l-46.68 46.68h38.24l-4.06-4.06a13.66 13.66 0 0 1 0-19.34l17.88-17.89a13.68 13.68 0 0 1 19.35 0l41.29 41.29h39.62l-84.67-84.66L512.65 902a13.69 13.69 0 0 1 0-19.35l146.18-146.22a13.66 13.66 0 0 1 19.34 0l17.89 17.88a13.68 13.68 0 0 1 0 19.35L577.44 892.28l112.22 112.22h14l-.66-.5-103.55-103.61a13.68 13.68 0 0 1 0-19.35l17.89-17.89a35.28 35.28 0 0 1 14-5.88h93.22l-41-41a13.71 13.71 0 0 1 0-19.35L701.44 779a13.7 13.7 0 0 1 19.35 0l103.56 103.6a13.69 13.69 0 0 1 0 19.35l-17.88 17.89a34.16 34.16 0 0 1-14.15 5.09h-93.86l41.78 41.78a13.69 13.69 0 0 1 0 19.35L722.36 1004l-.61.55h34.67l83.91-83.91a13.66 13.66 0 0 1 19.34 0l17.89 17.89a13.66 13.66 0 0 1 0 19.34l-46.68 46.68h38.24l-4.06-4.06a13.66 13.66 0 0 1 0-19.34l17.88-17.89a13.68 13.68 0 0 1 19.35 0l41.29 41.29h37.62l-85.67-85.66L877.65 901a13.69 13.69 0 0 1 0-19.35l146.18-146.17a13.66 13.66 0 0 1 19.34 0l17.89 17.88a13.68 13.68 0 0 1 0 19.35L942.44 891.28l113.22 113.22h14.22a13.74 13.74 0 0 1-1.88-1.5L964.45 899.39a13.71 13.71 0 0 1 0-19.35l17.89-17.89a35.28 35.28 0 0 1 14-5.88h93.22l-41-41a13.71 13.71 0 0 1 0-19.35l17.89-17.92a13.69 13.69 0 0 1 19.34 0l103.56 103.6a13.68 13.68 0 0 1 0 19.35l-17.88 17.89a34.16 34.16 0 0 1-14.15 5.09h-93.86l41.78 41.78a13.68 13.68 0 0 1 0 19.35l-17.88 17.94a13.74 13.74 0 0 1-1.87 1.55h34.93l84.91-84.91a13.66 13.66 0 0 1 19.34 0l17.89 17.89a13.68 13.68 0 0 1 0 19.35l-47.68 47.67h40.24l-5.06-5.06a13.66 13.66 0 0 1 0-19.34l17.94-17.94a13.66 13.66 0 0 1 19.34 0l42.29 42.29h37.62l-86.67-86.66-17.93-17.84a13.18 13.18 0 0 1-1.72-2.09 13.55 13.55 0 0 1-2.29-7.58h0a13.61 13.61 0 0 1 2.29-7.59 14.15 14.15 0 0 1 1.72-2.09l17.88-17.88 128.3-128.29a13.66 13.66 0 0 1 19.34 0l17.89 17.88a13.68 13.68 0 0 1 0 19.35l-118.62 118.57 114.22 114.22h14.9a14 14 0 0 1-3.56-2.5l-103.55-103.61a13.71 13.71 0 0 1 0-19.35l17.89-17.89a35.28 35.28 0 0 1 14-5.88h93.22l-41-41a13.71 13.71 0 0 1 0-19.35l17.89-17.92a13.69 13.69 0 0 1 19.34 0l103.56 103.6a13.68 13.68 0 0 1 0 19.35l-17.88 17.89a34.16 34.16 0 0 1-14.15 5.09h-93.86l41.78 41.78a13.68 13.68 0 0 1 0 19.35l-17.88 17.94a14 14 0 0 1-3.55 2.55h35.61l85.91-85.91a13.66 13.66 0 0 1 19.34 0l17.89 17.89a13.68 13.68 0 0 1 0 19.35l-48.68 48.67h42.24l-6.06-6.06a13.66 13.66 0 0 1 0-19.34l17.94-17.94a13.66 13.66 0 0 1 19.34 0l43.29 43.29h37.62l-87.67-87.66-17.93-17.84a13.18 13.18 0 0 1-1.72-2.09 13.55 13.55 0 0 1-2.29-7.58h0a13.61 13.61 0 0 1 2.29-7.59 14.15 14.15 0 0 1 1.72-2.09l17.88-17.88 128.3-128.29a13.66 13.66 0 0 1 19.34 0l17.89 17.88a13.68 13.68 0 0 1 0 19.35l-118.62 118.57 115.22 115.22h16.58a13.6 13.6 0 0 1-6.24-3.5l-103.55-103.61a13.71 13.71 0 0 1 0-19.35l17.89-17.89a35.28 35.28 0 0 1 14-5.88h93.22l-41-41a13.71 13.71 0 0 1 0-19.35l17.89-17.92a13.69 13.69 0 0 1 19.34 0l103.56 103.6.15.17v-31.3L1809.05 738h0l-17.88-17.88a13.68 13.68 0 0 1 0-19.35l17.83-17.88 110.5-110.47v-30.63l-.15.16-17.88 17.89a34.16 34.16 0 0 1-14.15 5.09h-93.86l41.78 41.78a13.68 13.68 0 0 1 0 19.35L1817.36 644a13.7 13.7 0 0 1-19.35 0l-103.56-103.61a13.71 13.71 0 0 1 0-19.35l17.89-17.89a35.28 35.28 0 0 1 14-5.88h93.22l-41-41a13.71 13.71 0 0 1 0-19.35l17.89-17.92a13.69 13.69 0 0 1 19.34 0l103.56 103.6.15.17v-31.3L1809 381zm-199.35-221.4l17.88-17.88 128.3-128.29a13.66 13.66 0 0 1 19.34 0l17.89 17.88a13.68 13.68 0 0 1 0 19.35l-118.62 118.62 118.62 118.62a13.68 13.68 0 0 1 0 19.35l-17.89 17.88a13.66 13.66 0 0 1-19.34 0l-128.29-128.28h0L1609.65 179a13.68 13.68 0 0 1 0-19.35zm44.09 269.28a13.68 13.68 0 0 1 0 19.35l-17.88 17.88a13.68 13.68 0 0 1-19.35 0L1513 362.55a13.69 13.69 0 0 1 0-19.34l17.89-17.89a35.28 35.28 0 0 1 14-5.88h93.22l-41-41a13.69 13.69 0 0 1 0-19.34l17.89-17.89a13.66 13.66 0 0 1 19.34 0l103.56 103.56a13.68 13.68 0 0 1 0 19.35L1720 382a34.44 34.44 0 0 1-14.15 5.1H1612zM1582 194.59a13.59 13.59 0 0 1 9.67 4l17.89 17.89a13.68 13.68 0 0 1 0 19.35l-118.62 118.61 118.62 118.62a13.68 13.68 0 0 1 0 19.35l-17.89 17.89a13.69 13.69 0 0 1-19.34 0L1444 382h0l-17.88-17.88a13.68 13.68 0 0 1 0-19.35l17.88-17.88h0l128.3-128.3a13.59 13.59 0 0 1 9.7-4zm-111.76 413.12a13.68 13.68 0 0 1 0 19.35L1452.36 645a13.7 13.7 0 0 1-19.35 0l-103.56-103.61a13.71 13.71 0 0 1 0-19.35l17.89-17.89a35.28 35.28 0 0 1 14-5.88h93.22l-41-41a13.71 13.71 0 0 1 0-19.35l17.89-17.92a13.69 13.69 0 0 1 19.34 0l103.56 103.6a13.68 13.68 0 0 1 0 19.35l-17.88 17.89a34.16 34.16 0 0 1-14.15 5.09h-93.86zM1443.12 53a13.59 13.59 0 0 1 9.67 4l103.56 103.6a13.68 13.68 0 0 1 0 19.35l-17.88 17.89a34.16 34.16 0 0 1-14.15 5.09h-93.86l41.78 41.78a13.68 13.68 0 0 1 0 19.35L1454.36 282a13.7 13.7 0 0 1-19.35 0l-103.56-103.61a13.71 13.71 0 0 1 0-19.35l17.89-17.89a13.56 13.56 0 0 1 6.46-3.61 13.6 13.6 0 0 1 7.53-2.27h93.22l-41-41a13.71 13.71 0 0 1 0-19.35l17.9-17.92a13.58 13.58 0 0 1 9.67-4zm-198.47 107.6l17.88-17.88 128.3-128.29a13.66 13.66 0 0 1 19.34 0l17.89 17.88a13.68 13.68 0 0 1 0 19.35l-118.62 118.62 118.62 118.62a13.68 13.68 0 0 1 0 19.35l-17.89 17.88a13.66 13.66 0 0 1-19.34 0l-128.29-128.28h0L1244.65 180a13.68 13.68 0 0 1 0-19.35zm44.09 269.28a13.68 13.68 0 0 1 0 19.35l-17.88 17.88a13.68 13.68 0 0 1-19.35 0L1148 363.55a13.69 13.69 0 0 1 0-19.34l17.89-17.89a35.28 35.28 0 0 1 14-5.88h93.22l-41-41a13.69 13.69 0 0 1 0-19.34l17.89-17.89a13.66 13.66 0 0 1 19.34 0l103.56 103.56a13.68 13.68 0 0 1 0 19.35L1355 383a34.44 34.44 0 0 1-14.15 5.1H1247zM1217 195.59a13.59 13.59 0 0 1 9.67 4l17.89 17.89a13.68 13.68 0 0 1 0 19.35l-118.62 118.61 118.62 118.62a13.68 13.68 0 0 1 0 19.35l-17.89 17.89a13.69 13.69 0 0 1-19.34 0L1079 383h0l-17.88-17.88a13.68 13.68 0 0 1 0-19.35l17.88-17.88h0l128.3-128.3a13.59 13.59 0 0 1 9.7-4zm-111.76 413.12a13.68 13.68 0 0 1 0 19.35L1087.36 646a13.7 13.7 0 0 1-19.35 0L964.45 542.39a13.71 13.71 0 0 1 0-19.35l17.89-17.89a35.28 35.28 0 0 1 14-5.88h93.22l-41-41a13.71 13.71 0 0 1 0-19.35l17.89-17.92a13.69 13.69 0 0 1 19.34 0l103.56 103.6a13.68 13.68 0 0 1 0 19.35l-17.88 17.89a34.16 34.16 0 0 1-14.15 5.09h-93.86zM1078.12 54a13.59 13.59 0 0 1 9.67 4l103.56 103.6a13.68 13.68 0 0 1 0 19.35l-17.88 17.89a34.16 34.16 0 0 1-14.15 5.09h-93.86l41.78 41.78a13.68 13.68 0 0 1 0 19.35L1089.36 283a13.7 13.7 0 0 1-19.35 0L966.45 179.39a13.71 13.71 0 0 1 0-19.35l17.89-17.89a13.56 13.56 0 0 1 6.46-3.61 13.6 13.6 0 0 1 7.53-2.27h93.22l-41-41a13.71 13.71 0 0 1 0-19.35l17.9-17.92a13.58 13.58 0 0 1 9.67-4zM879.65 161.6l17.88-17.88h0l128.3-128.29a13.66 13.66 0 0 1 19.34 0l17.89 17.88a13.68 13.68 0 0 1 0 19.35L944.44 171.28l118.62 118.62a13.68 13.68 0 0 1 0 19.35l-17.89 17.88a13.66 13.66 0 0 1-19.34 0L897.54 198.84h0L879.65 181a13.68 13.68 0 0 1 0-19.35zm44.09 269.28a13.69 13.69 0 0 1 0 19.35l-17.88 17.88a13.68 13.68 0 0 1-19.35 0L783 364.55a13.69 13.69 0 0 1 0-19.34l17.88-17.89a35.4 35.4 0 0 1 14-5.88h93.23l-41-41a13.69 13.69 0 0 1 0-19.34l17.88-17.89a13.68 13.68 0 0 1 19.35 0l103.56 103.56a13.68 13.68 0 0 1 0 19.35L990 384a34.44 34.44 0 0 1-14.15 5.1H882zM852 196.59a13.59 13.59 0 0 1 9.67 4l17.89 17.89a13.66 13.66 0 0 1 0 19.34L760.94 356.44l118.62 118.62a13.68 13.68 0 0 1 0 19.35l-17.89 17.89a13.69 13.69 0 0 1-19.34 0L714 384h0l-17.88-17.88a13.68 13.68 0 0 1 0-19.35L714 328.89h0l128.33-128.3a13.59 13.59 0 0 1 9.67-4zM740.24 609.71a13.69 13.69 0 0 1 0 19.35L722.36 647a13.7 13.7 0 0 1-19.36 0L599.45 543.39a13.68 13.68 0 0 1 0-19.35l17.89-17.89a35.28 35.28 0 0 1 14-5.88h93.22l-41-41a13.68 13.68 0 0 1 0-19.35L701.44 422a13.7 13.7 0 0 1 19.35 0l103.56 103.6a13.69 13.69 0 0 1 0 19.35l-17.88 17.89a34.16 34.16 0 0 1-14.15 5.09h-93.86zM713.12 55a13.59 13.59 0 0 1 9.67 4l103.56 103.6a13.69 13.69 0 0 1 0 19.35l-17.88 17.89a34.16 34.16 0 0 1-14.15 5.09h-93.86l41.78 41.78a13.69 13.69 0 0 1 0 19.35L724.36 284a13.7 13.7 0 0 1-19.36 0L601.45 180.39a13.68 13.68 0 0 1 0-19.35l17.88-17.89a13.64 13.64 0 0 1 6.47-3.61 13.6 13.6 0 0 1 7.53-2.27h93.22l-41-41a13.68 13.68 0 0 1 0-19.35L703.44 59a13.62 13.62 0 0 1 9.68-4zM514.65 162.6l17.88-17.88h0l128.3-128.29a13.66 13.66 0 0 1 19.34 0l17.89 17.88a13.71 13.71 0 0 1 0 19.35L579.44 172.28 698.06 290.9a13.68 13.68 0 0 1 0 19.35l-17.89 17.88a13.66 13.66 0 0 1-19.34 0L532.54 199.84h0L514.65 182a13.68 13.68 0 0 1 0-19.35zm41.09 268.28a13.69 13.69 0 0 1 0 19.35l-17.88 17.88a13.68 13.68 0 0 1-19.35 0L415 364.55a13.69 13.69 0 0 1 0-19.34l17.88-17.89a35.4 35.4 0 0 1 14-5.88h93.22l-41-41a13.69 13.69 0 0 1 0-19.34l17.88-17.89a13.68 13.68 0 0 1 19.35 0l103.52 103.56a13.68 13.68 0 0 1 0 19.35L622 384a34.44 34.44 0 0 1-14.15 5.1H514zM484 196.59a13.59 13.59 0 0 1 9.67 4l17.89 17.89a13.66 13.66 0 0 1 0 19.34L392.94 356.44l118.62 118.62a13.68 13.68 0 0 1 0 19.35l-17.89 17.89a13.69 13.69 0 0 1-19.34 0L346 384h0l-17.88-17.88a13.68 13.68 0 0 1 0-19.35L346 328.89h0l128.33-128.3a13.59 13.59 0 0 1 9.67-4zM372.24 609.71a13.69 13.69 0 0 1 0 19.35L354.36 647a13.7 13.7 0 0 1-19.36 0L231.45 543.39a13.68 13.68 0 0 1 0-19.35l17.89-17.89a13.56 13.56 0 0 1 6.46-3.61 13.6 13.6 0 0 1 7.53-2.27h93.22l-41-41a13.68 13.68 0 0 1 0-19.35L333.44 422a13.7 13.7 0 0 1 19.35 0l103.56 103.6a13.69 13.69 0 0 1 0 19.35l-17.88 17.89a13.62 13.62 0 0 1-8.71 4 13.72 13.72 0 0 1-5.44 1.13h-93.86zM345.12 55a13.59 13.59 0 0 1 9.67 4l103.56 103.6a13.69 13.69 0 0 1 0 19.35l-17.88 17.89a13.62 13.62 0 0 1-8.71 4 13.72 13.72 0 0 1-5.44 1.13h-93.86l41.78 41.78a13.69 13.69 0 0 1 0 19.35L356.36 284a13.7 13.7 0 0 1-19.36 0L233.45 180.39a13.68 13.68 0 0 1 0-19.35l17.88-17.89a13.64 13.64 0 0 1 6.47-3.61 13.6 13.6 0 0 1 7.53-2.27h93.22l-41-41a13.68 13.68 0 0 1 0-19.35L335.44 59a13.62 13.62 0 0 1 9.68-4zM146.65 182a13.68 13.68 0 0 1 0-19.35l17.88-17.88h0l128.3-128.34a13.66 13.66 0 0 1 19.34 0l17.89 17.88a13.71 13.71 0 0 1 0 19.35L211.44 172.28 330.06 290.9a13.68 13.68 0 0 1 0 19.35l-17.89 17.88a13.66 13.66 0 0 1-19.34 0L164.54 199.84h0zM50 365.55a13.69 13.69 0 0 1 0-19.34l17.88-17.89a13.55 13.55 0 0 1 6.47-3.61 13.6 13.6 0 0 1 7.53-2.27h93.22l-41-41a13.69 13.69 0 0 1 0-19.34l17.88-17.89a13.68 13.68 0 0 1 19.35 0l103.52 103.56a13.68 13.68 0 0 1 0 19.35L257 385a13.57 13.57 0 0 1-8.71 4 13.55 13.55 0 0 1-5.44 1.14H149l41.78 41.78a13.69 13.69 0 0 1 0 19.35l-17.88 17.88a13.68 13.68 0 0 1-19.35 0zm224.9 358.57L257 742a13.57 13.57 0 0 1-8.71 4 13.55 13.55 0 0 1-5.44 1.14H149l41.78 41.78a13.68 13.68 0 0 1 0 19.35l-17.88 17.88a13.68 13.68 0 0 1-19.35 0L50 722.55a13.66 13.66 0 0 1 0-19.34l17.89-17.89a13.48 13.48 0 0 1 6.46-3.61 13.6 13.6 0 0 1 7.53-2.27h93.22l-41-41a13.66 13.66 0 0 1 0-19.34l17.88-17.89a13.68 13.68 0 0 1 19.35 0l103.52 103.56a13.68 13.68 0 0 1 0 19.35zm25.65-29a13.6 13.6 0 0 1-9.67-4L162.53 562.84 144.65 545a13.69 13.69 0 0 1 0-19.35l146.18-146.22a13.66 13.66 0 0 1 19.34 0l17.89 17.88a13.71 13.71 0 0 1 0 19.35L209.44 535.28 328.06 653.9a13.68 13.68 0 0 1 0 19.35l-17.89 17.88a13.6 13.6 0 0 1-9.67 4.01zm211.01 156.29l-17.89 17.89a13.69 13.69 0 0 1-19.34 0L346 741h0l-17.88-17.88a13.53 13.53 0 0 1-3.42-5.69 13.7 13.7 0 0 1 3.42-13.66L346 685.89l128.3-128.3a13.66 13.66 0 0 1 19.34 0l17.89 17.89a13.66 13.66 0 0 1 0 19.34L392.94 713.44l118.62 118.62a13.68 13.68 0 0 1 0 19.35zm128.29-128.29L622 741a34.44 34.44 0 0 1-14.15 5.1H514l41.78 41.78a13.68 13.68 0 0 1 0 19.35l-17.88 17.88a13.68 13.68 0 0 1-19.35 0L415 721.55a13.66 13.66 0 0 1 0-19.34l17.89-17.89a35.28 35.28 0 0 1 14-5.88h93.22l-41-41a13.66 13.66 0 0 1 0-19.34l17.88-17.89a13.68 13.68 0 0 1 19.35 0l103.51 103.56a13.68 13.68 0 0 1 0 19.35zm28.65-28a13.6 13.6 0 0 1-9.67-4l-128.3-128.28L512.65 545a13.69 13.69 0 0 1 0-19.35l146.18-146.22a13.66 13.66 0 0 1 19.34 0l17.89 17.88a13.71 13.71 0 0 1 0 19.35L577.44 535.28 696.06 653.9a13.68 13.68 0 0 1 0 19.35l-17.89 17.88a13.6 13.6 0 0 1-9.67 4.01zm211.06 156.29l-17.89 17.89a13.69 13.69 0 0 1-19.34 0L714 741h0l-17.88-17.88a13.53 13.53 0 0 1-3.42-5.69 13.7 13.7 0 0 1 3.42-13.66L714 685.89l128.3-128.3a13.66 13.66 0 0 1 19.34 0l17.89 17.89a13.66 13.66 0 0 1 0 19.34L760.94 713.44l118.62 118.62a13.68 13.68 0 0 1 0 19.35zm128.29-128.29L990 741a34.44 34.44 0 0 1-14.15 5.1H882l41.78 41.78a13.68 13.68 0 0 1 0 19.35l-17.88 17.88a13.68 13.68 0 0 1-19.35 0L783 721.55a13.66 13.66 0 0 1 0-19.34l17.89-17.89a35.28 35.28 0 0 1 14-5.88h93.22l-41-41a13.66 13.66 0 0 1 0-19.34l17.88-17.89a13.68 13.68 0 0 1 19.35 0l103.56 103.56a13.68 13.68 0 0 1 0 19.35zm25.65-29a13.6 13.6 0 0 1-9.67-4l-128.3-128.28L877.65 544a13.69 13.69 0 0 1 0-19.35l146.18-146.17a13.66 13.66 0 0 1 19.34 0l17.89 17.88a13.68 13.68 0 0 1 0 19.35L942.44 534.28l118.62 118.62a13.68 13.68 0 0 1 0 19.35l-17.89 17.88a13.6 13.6 0 0 1-9.67 4.01zm211.06 156.27l-17.89 17.89a13.69 13.69 0 0 1-19.34 0L1079.05 740h0l-17.88-17.88a13.68 13.68 0 0 1 0-19.35l17.83-17.88 128.3-128.3a13.66 13.66 0 0 1 19.34 0l17.89 17.89a13.68 13.68 0 0 1 0 19.35l-118.59 118.61 118.62 118.62a13.68 13.68 0 0 1 0 19.35zm128.29-128.29L1355 740a34.44 34.44 0 0 1-14.15 5.1H1247l41.78 41.78a13.68 13.68 0 0 1 0 19.35l-17.88 17.88a13.68 13.68 0 0 1-19.35 0L1148 720.55a13.66 13.66 0 0 1 0-19.34l17.89-17.89a35.28 35.28 0 0 1 14-5.88h93.22l-41-41a13.66 13.66 0 0 1 0-19.34l17.89-17.89a13.66 13.66 0 0 1 19.34 0l103.56 103.56a13.68 13.68 0 0 1 0 19.35zm25.65-29a13.6 13.6 0 0 1-9.67-4l-128.3-128.29-17.88-17.81a13.18 13.18 0 0 1-1.72-2.09 13.55 13.55 0 0 1-2.29-7.58h0a13.61 13.61 0 0 1 2.29-7.59 14.15 14.15 0 0 1 1.72-2.09l17.88-17.88 128.3-128.29a13.66 13.66 0 0 1 19.34 0l17.89 17.88a13.68 13.68 0 0 1 0 19.35l-118.62 118.57 118.62 118.62a13.68 13.68 0 0 1 0 19.35l-17.89 17.88a13.6 13.6 0 0 1-9.67 4.01zm211.06 156.27l-17.89 17.89a13.69 13.69 0 0 1-19.34 0L1444.05 739h0l-17.88-17.88a13.68 13.68 0 0 1 0-19.35l17.83-17.88 128.3-128.3a13.66 13.66 0 0 1 19.34 0l17.89 17.89a13.68 13.68 0 0 1 0 19.35l-118.59 118.61 118.62 118.62a13.68 13.68 0 0 1 0 19.35zm128.29-128.29L1720 739a34.44 34.44 0 0 1-14.15 5.1H1612l41.78 41.78a13.68 13.68 0 0 1 0 19.35l-17.88 17.88a13.68 13.68 0 0 1-19.35 0L1513 719.55a13.66 13.66 0 0 1 0-19.34l17.89-17.89a35.28 35.28 0 0 1 14-5.88h93.22l-41-41a13.66 13.66 0 0 1 0-19.34l17.89-17.89a13.66 13.66 0 0 1 19.34 0l103.56 103.56a13.68 13.68 0 0 1 0 19.35zm53.21-307.46l-118.62 118.66 118.62 118.62a13.68 13.68 0 0 1 0 19.35l-17.89 17.88a13.66 13.66 0 0 1-19.34 0l-128.3-128.29-17.88-17.84a13.18 13.18 0 0 1-1.72-2.09 13.55 13.55 0 0 1-2.29-7.58h0a13.61 13.61 0 0 1 2.29-7.59 14.15 14.15 0 0 1 1.72-2.09l17.88-17.88 128.3-128.29a13.66 13.66 0 0 1 19.34 0l17.89 17.88a13.68 13.68 0 0 1 0 19.35zm86.94-71.41l17.89-17.89a35.28 35.28 0 0 1 14-5.88h9.67v-28.56L1856 353.44l63.5 63.56v-13.9l-41.5-41.55a13.69 13.69 0 0 1 0-19.34zm41.5-304.11L1880.9-.5h-13.91l52.51 52.51V38.1zm0 735.9v-13.9l-41.5-41.55a13.66 13.66 0 0 1 0-19.34l17.89-17.89a35.28 35.28 0 0 1 14-5.88h9.67v-28.56L1856 710.44zm-18.03 142.84a34.16 34.16 0 0 1-14.15 5.09h-93.86l41.78 41.78a13.68 13.68 0 0 1 0 19.35l-17.88 17.94a13.6 13.6 0 0 1-6.23 3.55h37.29l71.08-71.08v-34.68l-.15.16zM.38 329.89l25.44 25.43L144.44 236.7a10.68 10.68 0 0 0 0-15.1l-17.89-17.89a10.68 10.68 0 0 0-15.1 0L-.5 315.66v13.43a11 11 0 0 1 .88.8zM-.5 385.8v13.43l112 112a10.68 10.68 0 0 0 15.1 0l17.89-17.89a10.68 10.68 0 0 0 0-15.1L25.82 359.57.38 385l-.88.8zm0-4.16l24.2-24.2-24.2-24.19v48.39zm257-5.22a13.56 13.56 0 0 1-1.6 6.41L272.73 365a10.69 10.69 0 0 0 0-15.11l-16.51-16.5a13.59 13.59 0 0 1 .28 2.73z"/><use xlink:href="#B"/><path d="M182.3 325.44l-3-3h-4.24l3 3h4.24z"/><path d="M146 387.1h94.38a13.37 13.37 0 0 1-2.72-2.1l-59.57-59.56H82.94a13.57 13.57 0 0 1 4.24 2.88zm101.52-1.1a10.67 10.67 0 0 0 6-9.58v-40.3a10.68 10.68 0 0 0-10.68-10.68H182.3l57.44 57.44a10.65 10.65 0 0 0 7.78 3.12zM68.15 336.12a13.67 13.67 0 0 1 .85-4.72l-16.93 16.93a10.68 10.68 0 0 0 0 15.1L68.64 380a13.55 13.55 0 0 1-.49-3.57zm10.1 53.49L155.63 467a10.69 10.69 0 0 0 15.11 0l17.88-17.88a10.69 10.69 0 0 0 0-15.11l-43.9-43.9H81.83a13.63 13.63 0 0 1-3.58-.5zm-7.1-53.49v40.3a10.68 10.68 0 0 0 10.68 10.68h59.89l-56.66-56.66a10.65 10.65 0 0 0-9.52-2.94 10.64 10.64 0 0 0-4.39 8.62zM346.03 384l.01.01-17.89-17.89L346.03 384zm19.35-55.11l25.44 25.43L509.44 235.7a10.68 10.68 0 0 0 0-15.1l-17.89-17.89a10.68 10.68 0 0 0-15.1 0L354.19 325a12.79 12.79 0 0 1 1.52-.09 13.56 13.56 0 0 1 9.67 3.98zm-19.35 0l-17.88 17.88 17.89-17.89-.01.01zm9.68 59.11a12.79 12.79 0 0 1-1.52-.09l122.26 122.27a10.68 10.68 0 0 0 15.1 0l17.89-17.89a10.68 10.68 0 0 0 0-15.1L390.82 358.57 365.38 384a13.56 13.56 0 0 1-9.67 4zm-7.56-57l-17.88 17.88a10.69 10.69 0 0 0 0 15.11l17.88 17.88a10.69 10.69 0 0 0 15.11 0l25.44-25.44L363.26 331a10.69 10.69 0 0 0-15.11 0z"/><use xlink:href="#B" x="365" y="-1"/><path d="M621.5 375.42a13.56 13.56 0 0 1-1.6 6.41L637.73 364a10.69 10.69 0 0 0 0-15.11l-16.51-16.5a13.59 13.59 0 0 1 .28 2.73zm-78.45-50.98h-95.11a13.57 13.57 0 0 1 4.24 2.88L511 386.1h94.38a13.37 13.37 0 0 1-2.72-2.1zM612.52 385a10.67 10.67 0 0 0 6-9.58v-40.3a10.68 10.68 0 0 0-10.68-10.68H547.3l57.44 57.44a10.65 10.65 0 0 0 7.78 3.12zm-179.37-49.88a13.67 13.67 0 0 1 .85-4.72l-16.93 16.93a10.68 10.68 0 0 0 0 15.1L433.64 379a13.55 13.55 0 0 1-.49-3.57zm10.1 53.49L520.63 466a10.69 10.69 0 0 0 15.11 0l17.88-17.88a10.69 10.69 0 0 0 0-15.11l-43.9-43.9h-62.89a13.63 13.63 0 0 1-3.58-.5z"/><use xlink:href="#C"/><path d="M714.03 384l.01.01-17.89-17.89L714.03 384zm19.35-55.11l25.44 25.43L877.44 235.7a10.68 10.68 0 0 0 0-15.1l-17.89-17.89a10.68 10.68 0 0 0-15.1 0L722.19 325a12.79 12.79 0 0 1 1.52-.09 13.56 13.56 0 0 1 9.67 3.98zm-19.35 0l-17.88 17.88 17.89-17.89-.01.01zm9.68 59.11a12.79 12.79 0 0 1-1.52-.09l122.26 122.27a10.68 10.68 0 0 0 15.1 0l17.89-17.89a10.68 10.68 0 0 0 0-15.1L758.82 358.57 733.38 384a13.56 13.56 0 0 1-9.67 4zm-7.56-57l-17.88 17.88a10.69 10.69 0 0 0 0 15.11l17.88 17.88a10.69 10.69 0 0 0 15.11 0l25.44-25.44L731.26 331a10.69 10.69 0 0 0-15.11 0zm273.35 44.42a13.56 13.56 0 0 1-1.6 6.41l17.83-17.83a10.69 10.69 0 0 0 0-15.11l-16.51-16.5a13.59 13.59 0 0 1 .28 2.73z"/><use xlink:href="#B" x="733" y="-1"/><path d="M911.06 324.44h-95.12a13.57 13.57 0 0 1 4.24 2.88L879 386.1h94.38a13.65 13.65 0 0 1-2.72-2.1zM980.52 385a10.67 10.67 0 0 0 6-9.58v-40.3a10.68 10.68 0 0 0-10.68-10.68H915.3l57.44 57.44a10.65 10.65 0 0 0 7.78 3.12zm-169.27 3.61L888.63 466a10.69 10.69 0 0 0 15.11 0l17.88-17.88a10.69 10.69 0 0 0 0-15.11l-43.9-43.9h-62.89a13.63 13.63 0 0 1-3.58-.5zm-10.1-53.49a13.67 13.67 0 0 1 .85-4.72l-16.93 16.93a10.68 10.68 0 0 0 0 15.1L801.64 379a13.55 13.55 0 0 1-.49-3.57z"/><use xlink:href="#C" x="368"/><path d="M1079.03 383l.01.01-17.89-17.89 17.88 17.88zm19.35-55.11l25.44 25.43 118.62-118.62a10.68 10.68 0 0 0 0-15.1l-17.89-17.89a10.68 10.68 0 0 0-15.1 0L1087.19 324a12.79 12.79 0 0 1 1.52-.09 13.56 13.56 0 0 1 9.67 3.98zm-19.35 0l-17.88 17.88 17.88-17.88h0z"/><use xlink:href="#D"/><use xlink:href="#E"/><use xlink:href="#B" x="1098" y="-2"/><path d="M1354.5 374.42a13.56 13.56 0 0 1-1.6 6.41l17.83-17.83a10.69 10.69 0 0 0 0-15.11l-16.51-16.5a13.59 13.59 0 0 1 .28 2.73zm-78.45-50.98h-95.11a13.57 13.57 0 0 1 4.24 2.88L1244 385.1h94.38a13.65 13.65 0 0 1-2.72-2.1z"/><use xlink:href="#F"/><path d="M1166.15,334.12a13.67,13.67,0,0,1,.85-4.72l-16.93,16.93a10.68,10.68,0,0,0,0,15.1L1166.64,378a13.69,13.69,0,0,1-.49-3.58Z"/><use xlink:href="#G"/><use xlink:href="#C" x="733" y="-1"/><path d="M1444.03 382l.01.01-17.89-17.89 17.88 17.88zm19.35-55.11l25.44 25.43 118.62-118.62a10.68 10.68 0 0 0 0-15.1l-17.89-17.89a10.68 10.68 0 0 0-15.1 0L1452.19 323a12.79 12.79 0 0 1 1.52-.09 13.56 13.56 0 0 1 9.67 3.98zm-19.35 0l-17.88 17.88 17.88-17.88h0z"/><use xlink:href="#D" x="365" y="-1"/><use xlink:href="#E" x="365" y="-1"/><use xlink:href="#B" x="1463" y="-3"/><path d="M1719.5 373.42a13.56 13.56 0 0 1-1.6 6.41l17.83-17.83a10.69 10.69 0 0 0 0-15.11l-16.51-16.5a13.59 13.59 0 0 1 .28 2.73zm-78.45-50.98h-95.11a13.57 13.57 0 0 1 4.24 2.88L1609 384.1h94.38a13.65 13.65 0 0 1-2.72-2.1z"/><use xlink:href="#F" x="365" y="-1"/><use xlink:href="#G" x="365" y="-1"/><path d="M1531.15,333.12a13.67,13.67,0,0,1,.85-4.72l-16.93,16.93a10.68,10.68,0,0,0,0,15.1L1531.64,377a13.69,13.69,0,0,1-.49-3.58Z"/><use xlink:href="#C" x="1098" y="-2"/><path d="M1809.03 381l.01.01-17.89-17.89 17.88 17.88zm19.35-55.11l25.44 25.43 65.68-65.68v-66L1817.19 322a12.79 12.79 0 0 1 1.52-.09 13.56 13.56 0 0 1 9.67 3.98zm-19.35 0l-17.88 17.88 17.88-17.88h0z"/><use xlink:href="#H"/><use xlink:href="#E" x="730" y="-2"/><path d="M1919.5 328.64v-7.2h-8.56a13.57 13.57 0 0 1 4.24 2.88zm-23.35 3.48a13.67 13.67 0 0 1 .85-4.72l-16.93 16.93a10.68 10.68 0 0 0 0 15.1l16.57 16.57a13.69 13.69 0 0 1-.49-3.58zm13.68 53.98a13.63 13.63 0 0 1-3.58-.49l13.25 13.25V386.1zm-6.29-62.6a10.64 10.64 0 0 0-4.39 8.62v40.3a10.68 10.68 0 0 0 10.68 10.68h9.67v-50.22l-6.44-6.44a10.65 10.65 0 0 0-9.52-2.94zM73 555.25a13.63 13.63 0 0 1-1.6 6.42l17.83-17.84a10.69 10.69 0 0 0 0-15.11l-16.51-16.5A13.67 13.67 0 0 1 73 515zm-13.68-53.98a13.67 13.67 0 0 1 2.73.28L-.5 439v62.28zM-.5 509.22v56.71h57.34a13.68 13.68 0 0 1-2.72-2.09zM70 555.25V515a10.68 10.68 0 0 0-10.68-10.68H-.5v.7l56.74 56.74a10.61 10.61 0 0 0 7.76 3.07 10.67 10.67 0 0 0 6-9.58zM5.12 627.94a10.69 10.69 0 0 0 0-15.11l-5.62-5.62v26.35zm176.76-120.22l25.44 25.44 118.62-118.62a10.69 10.69 0 0 0 0-15.11l-17.89-17.88a10.68 10.68 0 0 0-15.1 0L170.69 503.8l1.52-.09a13.6 13.6 0 0 1 9.67 4.01zm-9.67 59.12a12.79 12.79 0 0 1-1.52-.09L293 689a10.68 10.68 0 0 0 15.1 0l17.89-17.89a10.68 10.68 0 0 0 0-15.1L207.32 537.4l-25.44 25.44a13.59 13.59 0 0 1-9.67 4z"/><use xlink:href="#I"/><path d="M438,554.25a13.63,13.63,0,0,1-1.6,6.42l17.83-17.84a10.69,10.69,0,0,0,0-15.11l-16.51-16.5A13.67,13.67,0,0,1,438,514Z"/><use xlink:href="#J"/><path d="M359.55 503.27h-95.11a13.74 13.74 0 0 1 4.24 2.88l58.78 58.78h94.38a13.68 13.68 0 0 1-2.72-2.09zM429 563.83a10.67 10.67 0 0 0 6-9.58V514a10.68 10.68 0 0 0-10.68-10.68H363.8l57.44 57.44a10.61 10.61 0 0 0 7.76 3.07z"/><use xlink:href="#K"/><use xlink:href="#L"/><use xlink:href="#M"/><path d="M549.88 507.72l25.44 25.44 118.62-118.62a10.69 10.69 0 0 0 0-15.11l-17.89-17.88a10.68 10.68 0 0 0-15.1 0L538.69 503.8l1.52-.09a13.6 13.6 0 0 1 9.67 4.01zm-9.67 59.12a12.79 12.79 0 0 1-1.52-.09L661 689a10.68 10.68 0 0 0 15.1 0l17.89-17.89a10.68 10.68 0 0 0 0-15.1L575.32 537.4l-25.44 25.44a13.59 13.59 0 0 1-9.67 4z"/><use xlink:href="#I" x="368"/><path d="M806,554.25a13.63,13.63,0,0,1-1.6,6.42l17.83-17.84a10.69,10.69,0,0,0,0-15.11l-16.51-16.5A13.67,13.67,0,0,1,806,514Z"/><use xlink:href="#J" x="368"/><path d="M727.55 503.27h-95.11a13.74 13.74 0 0 1 4.24 2.88l58.78 58.78h94.38a13.68 13.68 0 0 1-2.72-2.09zM797 563.83a10.67 10.67 0 0 0 6-9.58V514a10.68 10.68 0 0 0-10.68-10.68H731.8l57.44 57.44a10.61 10.61 0 0 0 7.76 3.07z"/><use xlink:href="#K" x="368"/><use xlink:href="#L" x="368"/><use xlink:href="#M" x="368"/><path d="M914.88 506.72l25.44 25.44 118.62-118.62a10.69 10.69 0 0 0 0-15.11l-17.89-17.88a10.68 10.68 0 0 0-15.1 0L903.69 502.8l1.52-.09a13.6 13.6 0 0 1 9.67 4.01zm-9.67 59.12a12.79 12.79 0 0 1-1.52-.09L1026 688a10.68 10.68 0 0 0 15.1 0l17.89-17.89a10.68 10.68 0 0 0 0-15.1L940.32 536.4l-25.44 25.44a13.59 13.59 0 0 1-9.67 4z"/><use xlink:href="#I" x="733" y="-1"/><use xlink:href="#J" x="733" y="-1"/><path d="M1171 553.25a13.63 13.63 0 0 1-1.6 6.42l17.83-17.84a10.69 10.69 0 0 0 0-15.11l-16.51-16.5a13.67 13.67 0 0 1 .28 2.78zm-78.45-50.98h-95.11a13.74 13.74 0 0 1 4.24 2.88l58.78 58.78h94.38a14 14 0 0 1-2.72-2.09zm69.45 60.56a10.67 10.67 0 0 0 6-9.58V513a10.68 10.68 0 0 0-10.68-10.68h-60.52l57.44 57.44a10.61 10.61 0 0 0 7.76 3.07z"/><use xlink:href="#L" x="733" y="-1"/><path d="M982.65,513a13.67,13.67,0,0,1,.85-4.72l-16.93,16.93a10.69,10.69,0,0,0,0,15.11l16.57,16.56a13.63,13.63,0,0,1-.49-3.58Z"/><use xlink:href="#M" x="733" y="-1"/><path d="M1238.64 533.28a13.55 13.55 0 0 0 2.29 7.58 13.55 13.55 0 0 1-2.29-7.58zm41.24-27.56l25.44 25.44 118.62-118.62a10.69 10.69 0 0 0 0-15.11l-17.89-17.88a10.68 10.68 0 0 0-15.1 0L1268.69 501.8l1.52-.09a13.6 13.6 0 0 1 9.67 4.01z"/><use xlink:href="#N"/><path d="M1270.21 564.84a12.79 12.79 0 0 1-1.52-.09L1391 687a10.68 10.68 0 0 0 15.1 0l17.89-17.89a10.68 10.68 0 0 0 0-15.1L1305.32 535.4l-25.44 25.44a13.59 13.59 0 0 1-9.67 4z"/><use xlink:href="#I" x="1098" y="-2"/><path d="M1536,552.25a13.63,13.63,0,0,1-1.6,6.42l17.83-17.84a10.69,10.69,0,0,0,0-15.11l-16.51-16.5A13.67,13.67,0,0,1,1536,512Z"/><use xlink:href="#J" x="1098" y="-2"/><path d="M1457.55 501.27h-95.11a13.74 13.74 0 0 1 4.24 2.88l58.78 58.78h94.38a14 14 0 0 1-2.72-2.09zm69.45 60.56a10.67 10.67 0 0 0 6-9.58V512a10.68 10.68 0 0 0-10.68-10.68h-60.52l57.44 57.44a10.61 10.61 0 0 0 7.76 3.07zM1347.65 512a13.67 13.67 0 0 1 .85-4.72l-16.93 16.93a10.69 10.69 0 0 0 0 15.11l16.57 16.56a13.63 13.63 0 0 1-.49-3.58z"/><use xlink:href="#L" x="1098" y="-2"/><use xlink:href="#M" x="1098" y="-2"/><path d="M1603.64 532.28a13.55 13.55 0 0 0 2.29 7.58 13.55 13.55 0 0 1-2.29-7.58zm41.24-27.56l25.44 25.44 118.62-118.62a10.69 10.69 0 0 0 0-15.11l-17.89-17.88a10.68 10.68 0 0 0-15.1 0L1633.69 500.8l1.52-.09a13.6 13.6 0 0 1 9.67 4.01z"/><use xlink:href="#N" x="365" y="-1"/><path d="M1635.21 563.84a12.79 12.79 0 0 1-1.52-.09L1756 686a10.68 10.68 0 0 0 15.1 0l17.89-17.89a10.68 10.68 0 0 0 0-15.1L1670.32 534.4l-25.44 25.44a13.59 13.59 0 0 1-9.67 4zm-7.56-57l-17.88 17.88a10.69 10.69 0 0 0 0 15.11l17.88 17.88a10.67 10.67 0 0 0 15.11 0l25.44-25.43-25.44-25.44a10.69 10.69 0 0 0-15.11 0zM1901 551.25a13.63 13.63 0 0 1-1.6 6.42l17.83-17.84a10.55 10.55 0 0 0 2.27-3.37v-8.37a10.66 10.66 0 0 0-2.27-3.37l-16.51-16.5a13.67 13.67 0 0 1 .28 2.78z"/><use xlink:href="#J" x="1463" y="-3"/><path d="M1822.55 500.27h-95.11a13.74 13.74 0 0 1 4.24 2.88l58.78 58.78h94.38a14 14 0 0 1-2.72-2.09zm75.45 50.98V511a10.68 10.68 0 0 0-10.68-10.68h-60.52l57.44 57.44a7.72 7.72 0 0 0 13.76-6.46zM1712.65 511a13.67 13.67 0 0 1 .85-4.72l-16.93 16.93a10.69 10.69 0 0 0 0 15.11l16.57 16.56a13.63 13.63 0 0 1-.49-3.58z"/><use xlink:href="#L" x="1463" y="-3"/><use xlink:href="#M" x="1463" y="-3"/><path d="M2.38 22A13.45 13.45 0 0 1-.5 24.19v10l114 114a10.68 10.68 0 0 0 15.1 0l17.89-17.89a10.68 10.68 0 0 0 0-15.1L30.75-.5h-5.87zM20.64-.5H-.5v21.07a9.86 9.86 0 0 0 .76-.69zM258.5 13.42a13.56 13.56 0 0 1-1.6 6.41L274.73 2a10.51 10.51 0 0 0 1.85-2.5H258.5zM217.12-.5h-93.76L148 24.1h94.38a13.37 13.37 0 0 1-2.72-2.1zm38.38 13.92V-.5h-34.14l20.38 20.38a10.65 10.65 0 0 0 7.78 3.12 10.67 10.67 0 0 0 5.98-9.58zM143.72 24.1l3 3h4.24l-3-3h-4.24zm-63.47 2.51L157.63 104a10.69 10.69 0 0 0 15.11 0l17.88-17.88a10.69 10.69 0 0 0 0-15.11l-43.9-43.9H83.83a13.63 13.63 0 0 1-3.58-.5zM70.15-.5h-16.9l.82.93L70.64 17a13.55 13.55 0 0 1-.49-3.57z"/><path d="M73.15-.5v13.92A10.68 10.68 0 0 0 83.83 24.1h59.89L119.12-.5zM348.03 21l.01.01-17.89-17.89L348.03 21zm145.52 126.18l17.89-17.89a10.68 10.68 0 0 0 0-15.1L396.75-.5h-7.87L367.38 21a13.56 13.56 0 0 1-9.67 4 12.79 12.79 0 0 1-1.52-.09l122.26 122.27a10.68 10.68 0 0 0 15.1 0zM365.26 18.88L384.64-.5H331a10.29 10.29 0 0 0 1.27 1.5l17.88 17.88a10.69 10.69 0 0 0 15.11 0zm258.24-6.46a13.56 13.56 0 0 1-1.6 6.41L639.73 1A10.29 10.29 0 0 0 641-.5h-17.5zM583.12-.5h-93.76L513 23.1h94.38a13.37 13.37 0 0 1-2.72-2.1z"/><use xlink:href="#O"/><path d="M435.15-.5h-16L435.64 16a13.55 13.55 0 0 1-.49-3.57zm10.1 26.11L522.63 103a10.69 10.69 0 0 0 15.11 0l17.88-17.88a10.69 10.69 0 0 0 0-15.11l-43.9-43.9h-62.89a13.63 13.63 0 0 1-3.58-.5zM438.15-.5v12.92a10.68 10.68 0 0 0 10.68 10.68h59.89L485.12-.5zM716.03 21l.01.01-17.89-17.89L716.03 21zm145.52 126.18l17.89-17.89a10.68 10.68 0 0 0 0-15.1L764.75-.5h-7.87L735.38 21a13.56 13.56 0 0 1-9.67 4 12.79 12.79 0 0 1-1.52-.09l122.26 122.27a10.68 10.68 0 0 0 15.1 0zM733.26 18.88L752.64-.5H699a10.29 10.29 0 0 0 1.27 1.5l17.88 17.88a10.69 10.69 0 0 0 15.11 0zm258.24-6.46a13.56 13.56 0 0 1-1.6 6.41L1007.73 1A10.29 10.29 0 0 0 1009-.5h-17.5z"/><path d="M991.5-.5h-3v12.92a10.67 10.67 0 0 1-6 9.58 10.66 10.66 0 0 0 7.33-3.12v-.05a13.56 13.56 0 0 0 1.6-6.41zm-40.38 0h-93.76L881 23.1h94.38a13.65 13.65 0 0 1-2.72-2.1z"/><use xlink:href="#O" x="368"/><path d="M803.15-.5h-16L803.64 16a13.55 13.55 0 0 1-.49-3.57zm10.1 26.11L890.63 103a10.69 10.69 0 0 0 15.11 0l17.88-17.88a10.69 10.69 0 0 0 0-15.11l-43.9-43.9h-62.89a13.63 13.63 0 0 1-3.58-.5zM806.15-.5v12.92a10.68 10.68 0 0 0 10.68 10.68h59.89L853.12-.5zM1081.03 20l.01.01-17.89-17.89L1081.03 20zm145.52 126.18l17.89-17.89a10.68 10.68 0 0 0 0-15.1L1130.75-.5h-9.87l-20.5 20.5a13.56 13.56 0 0 1-9.67 4 12.79 12.79 0 0 1-1.52-.09l122.26 122.26a10.68 10.68 0 0 0 15.1.01zm-128.29-128.3L1116.64-.5h-51.82l.45.5 17.88 17.88a10.69 10.69 0 0 0 15.11 0zM1372.73 0l-17.83 17.83a13.79 13.79 0 0 1-6.64 6.13 13.57 13.57 0 0 0 8.71-4l17.88-17.88a13.79 13.79 0 0 0 2-2.62h-3.71c-.14.21-.25.38-.41.54z"/><path d="M1356.5 11.42a13.56 13.56 0 0 1-1.6 6.41L1372.73 0c.16-.16.3-.33.45-.5h-16.68zM1317.12-.5h-93.76L1246 22.1h94.38a13.65 13.65 0 0 1-2.72-2.1zm36.38 11.92V-.5h-32.14l18.38 18.38a10.65 10.65 0 0 0 7.78 3.12 10.67 10.67 0 0 0 5.98-9.58z"/><use xlink:href="#G" x="2" y="-363"/><path d="M1168.15-.5h-15l15.5 15.5a13.69 13.69 0 0 1-.49-3.58zm3 0v11.92a10.68 10.68 0 0 0 10.68 10.68h59.89l-22.6-22.6zM1446.03 19l.01.01-17.89-17.89L1446.03 19zm145.52 126.18l17.89-17.89a10.68 10.68 0 0 0 0-15.1L1496.75-.5h-11.87l-19.5 19.5a13.56 13.56 0 0 1-9.67 4 12.79 12.79 0 0 1-1.52-.09l122.26 122.26a10.68 10.68 0 0 0 15.1.01zm-128.29-128.3L1480.64-.5h-49.87l17.38 17.38a10.69 10.69 0 0 0 15.11 0zm258.24-6.46a13.56 13.56 0 0 1-1.6 6.41L1737.23-.5h-15.73z"/><path d="M1721.5-.5h-3v10.92a10.67 10.67 0 0 1-6 9.58 10.66 10.66 0 0 0 7.33-3.12l.05-.05a13.56 13.56 0 0 0 1.6-6.41zm-38.38 0h-93.76L1611 21.1h94.38a13.65 13.65 0 0 1-2.72-2.1z"/><path d="M1718.5 10.42V-.5h-31.14l17.38 17.38a10.65 10.65 0 0 0 7.78 3.12 10.67 10.67 0 0 0 5.98-9.58zM1533.15-.5h-14l14.5 14.5a13.69 13.69 0 0 1-.49-3.58z"/><use xlink:href="#G" x="367" y="-364"/><path d="M1536.15-.5v10.92a10.68 10.68 0 0 0 10.68 10.68h59.89l-21.6-21.6zM1811.03 18l.01.01L1793.15.12 1811.03 18zm108.47 38.25L1862.75-.5h-13.87l-18.5 18.5a13.56 13.56 0 0 1-9.67 4 12.79 12.79 0 0 1-1.52-.09l100.31 100.32zm-91.24-40.37L1844.64-.5h-47.87l16.38 16.38a10.69 10.69 0 0 0 15.11 0zm83.57 7.22a13.63 13.63 0 0 1-3.58-.49l11.25 11.25V23.1zM1898.15-.5h-13l13.5 13.5a13.69 13.69 0 0 1-.49-3.58zm3 0v9.92a10.68 10.68 0 0 0 10.68 10.68h7.67V-.5zM61.32 138.27a13.67 13.67 0 0 1 2.73.28L-.5 74v64.28zM75 192.25a13.63 13.63 0 0 1-1.6 6.42l17.83-17.84a10.69 10.69 0 0 0 0-15.11l-16.51-16.5A13.67 13.67 0 0 1 75 152zM-.5 139.97v1.3H.8l-1.3-1.3zm0 4.25v58.71h59.34a13.68 13.68 0 0 1-2.72-2.09zM72 192.25V152a10.68 10.68 0 0 0-10.68-10.68H.8l57.44 57.44a10.61 10.61 0 0 0 7.76 3.07 10.67 10.67 0 0 0 6-9.58zM7.12 264.94a10.69 10.69 0 0 0 0-15.11l-7.62-7.62v30.35zm157.42-65.1l-17.89-17.89 17.88 17.89h.01zm19.34-55.12l25.44 25.44L327.94 51.54a10.69 10.69 0 0 0 0-15.11l-17.89-17.88a10.68 10.68 0 0 0-15.1 0L172.69 140.8l1.52-.09a13.6 13.6 0 0 1 9.67 4.01zm-19.35 0l-17.88 17.88 17.89-17.88h-.01zM310.05 326l17.89-17.89a10.68 10.68 0 0 0 0-15.1L209.32 174.4l-25.44 25.44a13.59 13.59 0 0 1-9.67 4 12.79 12.79 0 0 1-1.52-.09L295 326a10.68 10.68 0 0 0 15.05 0z"/><use xlink:href="#I" x="2" y="-363"/><use xlink:href="#J" x="2" y="-363"/><path d="M440 191.25a13.63 13.63 0 0 1-1.6 6.42l17.83-17.84a10.69 10.69 0 0 0 0-15.11l-16.51-16.5A13.67 13.67 0 0 1 440 151zm-78.45-50.98h-95.11a13.74 13.74 0 0 1 4.24 2.88l58.78 58.78h94.38a13.68 13.68 0 0 1-2.72-2.09zM437 191.25V151a10.68 10.68 0 0 0-10.68-10.68H365.8l57.44 57.44a10.61 10.61 0 0 0 7.78 3.12 10.67 10.67 0 0 0 5.98-9.63z"/><use xlink:href="#L" x="2" y="-363"/><use xlink:href="#P"/><use xlink:href="#M" x="2" y="-363"/><path d="M532.53 199.84h.01l-17.89-17.89 17.88 17.89zm19.35-55.12l25.44 25.44L695.94 51.54a10.69 10.69 0 0 0 0-15.11l-17.89-17.88a10.68 10.68 0 0 0-15.1 0L540.69 140.8l1.52-.09a13.6 13.6 0 0 1 9.67 4.01zm-19.35 0l-17.88 17.88 17.89-17.88h-.01zM678.05 326l17.89-17.89a10.68 10.68 0 0 0 0-15.1L577.32 174.4l-25.44 25.44a13.59 13.59 0 0 1-9.67 4 12.79 12.79 0 0 1-1.52-.09L663 326a10.68 10.68 0 0 0 15.05 0z"/><use xlink:href="#I" x="370" y="-363"/><use xlink:href="#J" x="370" y="-363"/><path d="M808 191.25a13.63 13.63 0 0 1-1.6 6.42l17.83-17.84a10.69 10.69 0 0 0 0-15.11l-16.51-16.5A13.67 13.67 0 0 1 808 151zm-78.45-50.98h-95.11a13.74 13.74 0 0 1 4.24 2.88l58.78 58.78h94.38a13.68 13.68 0 0 1-2.72-2.09zM805 191.25V151a10.68 10.68 0 0 0-10.68-10.68H733.8l57.44 57.44a7.72 7.72 0 0 0 13.76-6.51z"/><use xlink:href="#P" x="368"/><use xlink:href="#L" x="370" y="-363"/><use xlink:href="#M" x="370" y="-363"/><path d="M897.53 198.84h.01l-17.89-17.89 17.88 17.89zm19.35-55.12l25.44 25.44 118.62-118.62a10.69 10.69 0 0 0 0-15.11l-17.89-17.88a10.68 10.68 0 0 0-15.1 0L905.69 139.8l1.52-.09a13.6 13.6 0 0 1 9.67 4.01zm-19.35 0l-17.88 17.88 17.89-17.88h-.01zM1043.05 325l17.89-17.89a10.68 10.68 0 0 0 0-15.1L942.32 173.4l-25.44 25.44a13.59 13.59 0 0 1-9.67 4 12.79 12.79 0 0 1-1.52-.09L1028 325a10.68 10.68 0 0 0 15.05 0z"/><use xlink:href="#I" x="735" y="-364"/><path d="M1173,190.25a13.63,13.63,0,0,1-1.6,6.42l17.83-17.84a10.69,10.69,0,0,0,0-15.11l-16.51-16.5A13.67,13.67,0,0,1,1173,150Z"/><use xlink:href="#J" x="735" y="-364"/><path d="M1094.55 139.27h-95.11a13.74 13.74 0 0 1 4.24 2.88l58.78 58.78h94.38a13.68 13.68 0 0 1-2.72-2.09zm75.45 50.98V150a10.68 10.68 0 0 0-10.68-10.68h-60.52l57.44 57.44a7.72 7.72 0 0 0 13.76-6.46z"/><use xlink:href="#L" x="735" y="-364"/><path d="M984.65,150a13.67,13.67,0,0,1,.85-4.72l-16.93,16.93a10.69,10.69,0,0,0,0,15.11l16.57,16.56a13.63,13.63,0,0,1-.49-3.58Z"/><use xlink:href="#M" x="735" y="-364"/><path d="M1262.53 197.84l.01.01-17.89-17.9 17.88 17.89zm19.35-55.12l25.44 25.44 118.62-118.62a10.69 10.69 0 0 0 0-15.11l-17.89-17.88a10.68 10.68 0 0 0-15.1 0L1270.69 138.8l1.52-.09a13.6 13.6 0 0 1 9.67 4.01zM1408.05 324l17.89-17.89a10.68 10.68 0 0 0 0-15.1L1307.32 172.4l-25.44 25.44a13.59 13.59 0 0 1-9.67 4 12.79 12.79 0 0 1-1.52-.09L1393 324a10.68 10.68 0 0 0 15.05 0z"/><use xlink:href="#I" x="1100" y="-365"/><use xlink:href="#J" x="1100" y="-365"/><path d="M1538 189.25a13.63 13.63 0 0 1-1.6 6.42l17.83-17.84a10.69 10.69 0 0 0 0-15.11l-16.51-16.5a13.67 13.67 0 0 1 .28 2.78zm-78.45-50.98h-95.11a13.74 13.74 0 0 1 4.24 2.88l58.78 58.78h94.38a13.68 13.68 0 0 1-2.72-2.09zm75.45 50.98V149a10.68 10.68 0 0 0-10.68-10.68h-60.52l57.44 57.44a7.72 7.72 0 0 0 13.76-6.46z"/><use xlink:href="#L" x="1100" y="-365"/><path d="M1349.65,149a13.67,13.67,0,0,1,.85-4.72l-16.93,16.93a10.69,10.69,0,0,0,0,15.11l16.57,16.56a13.63,13.63,0,0,1-.49-3.58Z"/><use xlink:href="#M" x="1100" y="-365"/><path d="M1627.53 196.84l.01.01-17.89-17.9 17.88 17.89zm19.35-55.12l25.44 25.44 118.62-118.62a10.69 10.69 0 0 0 0-15.11l-17.89-17.88a10.68 10.68 0 0 0-15.1 0L1635.69 137.8l1.52-.09a13.6 13.6 0 0 1 9.67 4.01zM1773.05 323l17.89-17.89a10.68 10.68 0 0 0 0-15.1L1672.32 171.4l-25.44 25.44a13.59 13.59 0 0 1-9.67 4 12.79 12.79 0 0 1-1.52-.09L1758 323a10.68 10.68 0 0 0 15.05 0z"/><use xlink:href="#I" x="1465" y="-366"/><path d="M1903 188.25a13.63 13.63 0 0 1-1.6 6.42l17.83-17.84c.1-.1.18-.2.27-.3V162l-.27-.3-16.51-16.5a13.67 13.67 0 0 1 .28 2.8z"/><use xlink:href="#J" x="1465" y="-366"/><path d="M1824.55 137.27h-95.11a13.74 13.74 0 0 1 4.24 2.88l58.78 58.78h94.38a13.68 13.68 0 0 1-2.72-2.09zm75.45 50.98V148a10.68 10.68 0 0 0-10.68-10.68h-60.52l57.44 57.44a7.72 7.72 0 0 0 13.76-6.46zM1714.65 148a13.67 13.67 0 0 1 .85-4.72l-16.93 16.93a10.69 10.69 0 0 0 0 15.11l16.57 16.56a13.63 13.63 0 0 1-.49-3.58z"/><use xlink:href="#L" x="1465" y="-366"/><use xlink:href="#M" x="1465" y="-366"/><path d="M142.44 956.7a10.68 10.68 0 0 0 0-15.1l-17.89-17.89a10.68 10.68 0 0 0-15.1 0l-80.79 80.79h66zm24.73 9.63a10.68 10.68 0 0 0-15.1 0l-17.89 17.89a10.68 10.68 0 0 0 0 15.1l5.18 5.18h66z"/><use xlink:href="#Q"/><use xlink:href="#R"/><use xlink:href="#Q" x="368"/><use xlink:href="#R" x="368"/><path d="M1240.44 954.7a10.68 10.68 0 0 0 0-15.1l-17.89-17.89a10.68 10.68 0 0 0-15.1 0l-82.79 82.79h66zm24.73 9.63a10.68 10.68 0 0 0-15.1 0l-17.89 17.89a10.68 10.68 0 0 0 0 15.1l7.18 7.18h66zm340.27-10.63a10.68 10.68 0 0 0 0-15.1l-17.89-17.89a10.68 10.68 0 0 0-15.1 0l-83.79 83.79h66zm24.73 9.63a10.68 10.68 0 0 0-15.1 0l-17.89 17.89a10.68 10.68 0 0 0 0 15.1l8.18 8.18h66zm289.33 41.17v-.86l-.86.86h.86z"/><path d="M1919.5 1003.64v-65.98l-66.84 66.84h65.98l.86-.86zM.38 686.89l25.44 25.43L144.44 593.7a10.68 10.68 0 0 0 0-15.1l-17.89-17.89a10.68 10.68 0 0 0-15.1 0L-.5 672.66v13.43a11 11 0 0 1 .88.8zM-.5 742.8v13.43l112 111.95a10.68 10.68 0 0 0 15.1 0l17.89-17.89a10.68 10.68 0 0 0 0-15.1L25.82 716.57.38 742a11 11 0 0 1-.88.8zm0-4.16l24.2-24.2-24.2-24.19v48.39z"/><use xlink:href="#B" y="357"/><path d="M256.5 733.42a13.56 13.56 0 0 1-1.6 6.41L272.73 722a10.69 10.69 0 0 0 0-15.11l-16.51-16.5a13.59 13.59 0 0 1 .28 2.73zm-78.45-50.98H82.94a13.57 13.57 0 0 1 4.24 2.88L146 744.1h94.38a13.37 13.37 0 0 1-2.72-2.1zm75.45 50.98v-40.3a10.68 10.68 0 0 0-10.68-10.68H182.3l57.44 57.44a10.65 10.65 0 0 0 7.78 3.12 10.67 10.67 0 0 0 5.98-9.58zm-185.35-40.3a13.67 13.67 0 0 1 .85-4.72l-16.93 16.93a10.68 10.68 0 0 0 0 15.1L68.64 737a13.55 13.55 0 0 1-.49-3.57zm10.1 53.49L155.63 824a10.69 10.69 0 0 0 15.11 0l17.88-17.88a10.69 10.69 0 0 0 0-15.11l-43.9-43.9H81.83a13.63 13.63 0 0 1-3.58-.5z"/><use xlink:href="#C" x="-365" y="358"/><path d="M324.73 717.43a13.53 13.53 0 0 0 3.42 5.69L346 741h0l-17.89-17.89a13.53 13.53 0 0 1-3.38-5.68zm40.65-31.54l25.44 25.43L509.44 592.7a10.68 10.68 0 0 0 0-15.1l-17.89-17.89a10.68 10.68 0 0 0-15.1 0L354.19 682a12.79 12.79 0 0 1 1.52-.09 13.56 13.56 0 0 1 9.67 3.98zM355.71 745a12.79 12.79 0 0 1-1.52-.09l122.26 122.27a10.68 10.68 0 0 0 15.1 0l17.89-17.89a10.68 10.68 0 0 0 0-15.1L390.82 715.57 365.38 741a13.56 13.56 0 0 1-9.67 4zm7.55-6.12l25.44-25.44L363.26 688a10.69 10.69 0 0 0-15.11 0l-17.88 17.88a10.69 10.69 0 0 0 0 15.11l17.88 17.88a10.69 10.69 0 0 0 15.11.01z"/><use xlink:href="#B" x="365" y="356"/><path d="M621.5 732.42a13.56 13.56 0 0 1-1.6 6.41L637.73 721a10.69 10.69 0 0 0 0-15.11l-16.51-16.5a13.59 13.59 0 0 1 .28 2.73zm-78.45-50.98h-95.11a13.57 13.57 0 0 1 4.24 2.88L511 743.1h94.38a13.37 13.37 0 0 1-2.72-2.1zm75.45 50.98v-40.3a10.68 10.68 0 0 0-10.68-10.68H547.3l57.44 57.44a7.72 7.72 0 0 0 13.76-6.46zm-175.25 13.19L520.63 823a10.69 10.69 0 0 0 15.11 0l17.88-17.88a10.69 10.69 0 0 0 0-15.11l-43.9-43.9h-62.89a13.63 13.63 0 0 1-3.58-.5zm-10.1-53.49a13.67 13.67 0 0 1 .85-4.72l-16.93 16.93a10.68 10.68 0 0 0 0 15.1L433.64 736a13.55 13.55 0 0 1-.49-3.57z"/><use xlink:href="#C" y="357"/><path d="M692.73 717.43a13.53 13.53 0 0 0 3.42 5.69L714 741h0l-17.89-17.89a13.53 13.53 0 0 1-3.38-5.68zm40.65-31.54l25.44 25.43L877.44 592.7a10.68 10.68 0 0 0 0-15.1l-17.89-17.89a10.68 10.68 0 0 0-15.1 0L722.19 682a12.79 12.79 0 0 1 1.52-.09 13.56 13.56 0 0 1 9.67 3.98zM723.71 745a12.79 12.79 0 0 1-1.52-.09l122.26 122.27a10.68 10.68 0 0 0 15.1 0l17.89-17.89a10.68 10.68 0 0 0 0-15.1L758.82 715.57 733.38 741a13.56 13.56 0 0 1-9.67 4zm7.55-6.12l25.44-25.44L731.26 688a10.69 10.69 0 0 0-15.11 0l-17.88 17.88a10.69 10.69 0 0 0 0 15.11l17.88 17.88a10.69 10.69 0 0 0 15.11.01z"/><use xlink:href="#B" x="733" y="356"/><path d="M989.5 732.42a13.56 13.56 0 0 1-1.6 6.41l17.83-17.83a10.69 10.69 0 0 0 0-15.11l-16.51-16.5a13.59 13.59 0 0 1 .28 2.73zm-78.45-50.98h-95.11a13.57 13.57 0 0 1 4.24 2.88L879 743.1h94.38a13.37 13.37 0 0 1-2.72-2.1zm75.45 50.98v-40.3a10.68 10.68 0 0 0-10.68-10.68H915.3l57.44 57.44a7.72 7.72 0 0 0 13.76-6.46zm-185.35-40.3a13.67 13.67 0 0 1 .85-4.72l-16.93 16.93a10.68 10.68 0 0 0 0 15.1L801.64 736a13.55 13.55 0 0 1-.49-3.57zm10.1 53.49L888.63 823a10.69 10.69 0 0 0 15.11 0l17.88-17.88a10.69 10.69 0 0 0 0-15.11l-43.9-43.9h-62.89a13.63 13.63 0 0 1-3.58-.5z"/><use xlink:href="#C" x="368" y="357"/><path d="M1079 740h0l-17.9-17.9zm19.38-55.11l25.44 25.43 118.62-118.62a10.68 10.68 0 0 0 0-15.1l-17.89-17.89a10.68 10.68 0 0 0-15.1 0L1087.19 681a12.79 12.79 0 0 1 1.52-.09 13.56 13.56 0 0 1 9.67 3.98z"/><use xlink:href="#D" y="357"/><use xlink:href="#S"/><path d="M1354.5,731.42a13.56,13.56,0,0,1-1.6,6.41L1370.73,720a10.69,10.69,0,0,0,0-15.11l-16.51-16.5a13.59,13.59,0,0,1,.28,2.73Z"/><use xlink:href="#B" x="1098" y="355"/><path d="M1276.05 680.44h-95.11a13.57 13.57 0 0 1 4.24 2.88L1244 742.1h94.38a13.37 13.37 0 0 1-2.72-2.1zm75.45 50.98v-40.3a10.68 10.68 0 0 0-10.68-10.68h-60.52l57.44 57.44a7.72 7.72 0 0 0 13.76-6.46z"/><use xlink:href="#G" y="357"/><path d="M1166.15,691.12a13.67,13.67,0,0,1,.85-4.72l-16.93,16.93a10.68,10.68,0,0,0,0,15.1L1166.64,735a13.69,13.69,0,0,1-.49-3.58Z"/><use xlink:href="#C" x="733" y="356"/><path d="M1444 739h0l-17.9-17.9zm19.38-55.11l25.44 25.43 118.62-118.62a10.68 10.68 0 0 0 0-15.1l-17.89-17.89a10.68 10.68 0 0 0-15.1 0L1452.19 680a12.79 12.79 0 0 1 1.52-.09 13.56 13.56 0 0 1 9.67 3.98z"/><use xlink:href="#D" x="365" y="356"/><use xlink:href="#S" x="365" y="-1"/><use xlink:href="#B" x="1463" y="354"/><path d="M1719.5 730.42a13.56 13.56 0 0 1-1.6 6.41l17.83-17.83a10.69 10.69 0 0 0 0-15.11l-16.51-16.5a13.59 13.59 0 0 1 .28 2.73zm-78.45-50.98h-95.11a13.57 13.57 0 0 1 4.24 2.88L1609 741.1h94.38a13.37 13.37 0 0 1-2.72-2.1zm75.45 50.98v-40.3a10.68 10.68 0 0 0-10.68-10.68h-60.52l57.44 57.44a7.72 7.72 0 0 0 13.76-6.46z"/><use xlink:href="#G" x="365" y="356"/><path d="M1531.15,690.12a13.67,13.67,0,0,1,.85-4.72l-16.93,16.93a10.68,10.68,0,0,0,0,15.1L1531.64,734a13.69,13.69,0,0,1-.49-3.58Z"/><use xlink:href="#C" x="1098" y="355"/><path d="M1809 738h0l-17.9-17.9zm19.38-55.11l25.44 25.43 65.68-65.68v-66L1817.19 679a12.79 12.79 0 0 1 1.52-.09 13.56 13.56 0 0 1 9.67 3.98z"/><use xlink:href="#H" y="357"/><use xlink:href="#S" x="730" y="-2"/><path d="M1919.5 685.64v-7.2h-8.56a13.57 13.57 0 0 1 4.24 2.88zm-23.35 3.48a13.67 13.67 0 0 1 .85-4.72l-16.93 16.93a10.68 10.68 0 0 0 0 15.1l16.57 16.57a13.69 13.69 0 0 1-.49-3.58zm13.68 53.98a13.63 13.63 0 0 1-3.58-.49l13.25 13.25V743.1zm-10.68-53.98v40.3a10.68 10.68 0 0 0 10.68 10.68h9.67v-50.22l-6.44-6.44a7.62 7.62 0 0 0-13.91 5.68zM59.32 858.27a13.67 13.67 0 0 1 2.73.28L-.5 796v62.28zM73 912.25a13.63 13.63 0 0 1-1.6 6.42l17.83-17.84a10.69 10.69 0 0 0 0-15.11l-16.51-16.5A13.67 13.67 0 0 1 73 872zM-.5 866.22v56.71h57.34a13.68 13.68 0 0 1-2.72-2.09zM70 912.25V872a10.68 10.68 0 0 0-10.68-10.68H-.5v.7l56.74 56.74a10.61 10.61 0 0 0 7.76 3.07 10.67 10.67 0 0 0 6-9.58zM5.12 984.94a10.69 10.69 0 0 0 0-15.11l-5.62-5.62v26.35zm176.76-120.22l25.44 25.44 118.62-118.62a10.69 10.69 0 0 0 0-15.11l-17.89-17.88a10.68 10.68 0 0 0-15.1 0L170.69 860.8c.5 0 1-.09 1.52-.09a13.6 13.6 0 0 1 9.67 4.01zm-9.67 59.12a12.79 12.79 0 0 1-1.52-.09l80.75 80.75h66L207.32 894.4l-25.44 25.44a13.59 13.59 0 0 1-9.67 4z"/><use xlink:href="#I" y="357"/><path d="M438,911.25a13.63,13.63,0,0,1-1.6,6.42l17.83-17.84a10.69,10.69,0,0,0,0-15.11l-16.51-16.5A13.67,13.67,0,0,1,438,871Z"/><use xlink:href="#J" y="357"/><path d="M327.46 921.93h94.38a13.68 13.68 0 0 1-2.72-2.09l-59.57-59.57h-95.11a13.74 13.74 0 0 1 4.24 2.88zm101.54-1.1a10.67 10.67 0 0 0 6-9.58V871a10.68 10.68 0 0 0-10.68-10.68H363.8l57.44 57.44a10.61 10.61 0 0 0 7.76 3.07z"/><use xlink:href="#T"/><use xlink:href="#U"/><path d="M252.65 871v40.3a10.68 10.68 0 0 0 10.68 10.68h59.89l-56.66-56.65a10.68 10.68 0 0 0-9.52-2.95 10.67 10.67 0 0 0-4.39 8.62zm297.23-6.28l25.44 25.44 118.62-118.62a10.69 10.69 0 0 0 0-15.11l-17.89-17.88a10.68 10.68 0 0 0-15.1 0L538.69 860.8c.5 0 1-.09 1.52-.09a13.6 13.6 0 0 1 9.67 4.01zm-9.67 59.12a12.79 12.79 0 0 1-1.52-.09l80.75 80.75h66L575.32 894.4l-25.44 25.44a13.59 13.59 0 0 1-9.67 4z"/><use xlink:href="#I" x="368" y="357"/><use xlink:href="#J" x="368" y="357"/><path d="M806 911.25a13.63 13.63 0 0 1-1.6 6.42l17.83-17.84a10.69 10.69 0 0 0 0-15.11l-16.51-16.5A13.67 13.67 0 0 1 806 871zm-110.54 10.68h94.38a13.68 13.68 0 0 1-2.72-2.09l-59.57-59.57h-95.11a13.74 13.74 0 0 1 4.24 2.88zm101.54-1.1a10.67 10.67 0 0 0 6-9.58V871a10.68 10.68 0 0 0-10.68-10.68H731.8l57.44 57.44a10.61 10.61 0 0 0 7.76 3.07z"/><use xlink:href="#U" x="368"/><use xlink:href="#T" x="368"/><path d="M620.65 871v40.3a10.68 10.68 0 0 0 10.68 10.68h59.89l-56.66-56.65a7.62 7.62 0 0 0-13.91 5.67zm294.23-7.28l25.44 25.44 118.62-118.62a10.69 10.69 0 0 0 0-15.11l-17.89-17.88a10.68 10.68 0 0 0-15.1 0L903.69 859.8c.5 0 1-.09 1.52-.09a13.6 13.6 0 0 1 9.67 4.01zm-9.67 59.12a12.79 12.79 0 0 1-1.52-.09l81.75 81.75h66L940.32 893.4l-25.44 25.44a13.59 13.59 0 0 1-9.67 4z"/><use xlink:href="#I" x="733" y="356"/><use xlink:href="#J" x="733" y="356"/><path d="M1171 910.25a13.63 13.63 0 0 1-1.6 6.42l17.83-17.84a10.69 10.69 0 0 0 0-15.11l-16.51-16.5a13.67 13.67 0 0 1 .28 2.78zm-110.54 10.68h94.38a14 14 0 0 1-2.72-2.09l-59.57-59.57h-95.11a13.74 13.74 0 0 1 4.24 2.88zm101.54-1.1a10.67 10.67 0 0 0 6-9.58V870a10.68 10.68 0 0 0-10.68-10.68h-60.52l57.44 57.44a10.61 10.61 0 0 0 7.76 3.07zM982.65 870a13.67 13.67 0 0 1 .85-4.72l-16.93 16.93a10.69 10.69 0 0 0 0 15.11l16.57 16.56a13.63 13.63 0 0 1-.49-3.58z"/><use xlink:href="#L" x="733" y="356"/><path d="M985.65 870v40.3a10.68 10.68 0 0 0 10.68 10.68h59.89l-56.66-56.65a7.62 7.62 0 0 0-13.91 5.67zm252.99 20.28a13.55 13.55 0 0 0 2.29 7.58 13.55 13.55 0 0 1-2.29-7.58zm41.24-27.56l25.44 25.44 118.62-118.62a10.69 10.69 0 0 0 0-15.11l-17.89-17.88a10.68 10.68 0 0 0-15.1 0L1268.69 858.8c.5 0 1-.09 1.52-.09a13.6 13.6 0 0 1 9.67 4.01z"/><use xlink:href="#N" y="357"/><path d="M1270.21 921.84a12.79 12.79 0 0 1-1.52-.09l82.75 82.75h66l-112.1-112.1-25.44 25.44a13.59 13.59 0 0 1-9.69 4z"/><use xlink:href="#I" x="1098" y="355"/><use xlink:href="#J" x="1098" y="355"/><path d="M1536 909.25a13.63 13.63 0 0 1-1.6 6.42l17.83-17.84a10.69 10.69 0 0 0 0-15.11l-16.51-16.5a13.67 13.67 0 0 1 .28 2.78zm-110.54 10.68h94.38a14 14 0 0 1-2.72-2.09l-59.57-59.57h-95.11a13.74 13.74 0 0 1 4.24 2.88zm101.54-1.1a10.67 10.67 0 0 0 6-9.58V869a10.68 10.68 0 0 0-10.68-10.68h-60.52l57.44 57.44a10.61 10.61 0 0 0 7.76 3.07z"/><use xlink:href="#L" x="1098" y="355"/><path d="M1347.65 869a13.67 13.67 0 0 1 .85-4.72l-16.93 16.93a10.69 10.69 0 0 0 0 15.11l16.57 16.56a13.63 13.63 0 0 1-.49-3.58zm3 0v40.3a10.68 10.68 0 0 0 10.68 10.68h59.89l-56.66-56.65a7.62 7.62 0 0 0-13.91 5.67zm252.99 20.28a13.55 13.55 0 0 0 2.29 7.58 13.55 13.55 0 0 1-2.29-7.58zm41.24-27.56l25.44 25.44 118.62-118.62a10.69 10.69 0 0 0 0-15.11l-17.89-17.88a10.68 10.68 0 0 0-15.1 0L1633.69 857.8c.5 0 1-.09 1.52-.09a13.6 13.6 0 0 1 9.67 4.01z"/><use xlink:href="#N" x="365" y="356"/><path d="M1635.21 920.84a12.79 12.79 0 0 1-1.52-.09l83.75 83.75h66l-113.1-113.1-25.44 25.44a13.59 13.59 0 0 1-9.69 4z"/><use xlink:href="#I" x="1463" y="354"/><use xlink:href="#J" x="1463" y="354"/><path d="M1901 908.25a13.63 13.63 0 0 1-1.6 6.42l17.83-17.84a10.55 10.55 0 0 0 2.27-3.37v-8.37a10.66 10.66 0 0 0-2.27-3.37l-16.51-16.5a13.67 13.67 0 0 1 .28 2.78zm-110.54 10.68h94.38a14 14 0 0 1-2.72-2.09l-59.57-59.57h-95.11a13.74 13.74 0 0 1 4.24 2.88zm101.54-1.1a10.67 10.67 0 0 0 6-9.58V868a10.68 10.68 0 0 0-10.68-10.68h-60.52l57.44 57.44a10.61 10.61 0 0 0 7.76 3.07z"/><use xlink:href="#L" x="1463" y="354"/><path d="M1712.65 868a13.67 13.67 0 0 1 .85-4.72l-16.93 16.93a10.69 10.69 0 0 0 0 15.11l16.57 16.56a13.63 13.63 0 0 1-.49-3.58zm3 0v40.3a10.68 10.68 0 0 0 10.68 10.68h59.89l-56.66-56.65a7.62 7.62 0 0 0-13.91 5.67z"/></g><defs ><path id="B" d="M245.55 322.71l-76.38-76.38a10.68 10.68 0 0 0-15.1 0l-17.89 17.89a10.68 10.68 0 0 0 0 15.1l43.12 43.12h63.52a13.66 13.66 0 0 1 2.73.27z"/><path id="C" d="M440.54 326.5a10.64 10.64 0 0 0-4.39 8.62v40.3a10.68 10.68 0 0 0 10.68 10.68h59.89l-56.66-56.66a10.65 10.65 0 0 0-9.52-2.94z"/><path id="D" d="M1088.71 387a12.79 12.79 0 0 1-1.52-.09l122.26 122.26a10.68 10.68 0 0 0 15.1 0l17.89-17.89a10.68 10.68 0 0 0 0-15.1l-118.62-118.61-25.44 25.43a13.56 13.56 0 0 1-9.67 4z"/><path id="E" d="M1081.15 330l-17.88 17.88a10.69 10.69 0 0 0 0 15.11l17.88 17.88a10.69 10.69 0 0 0 15.11 0l25.44-25.44-25.44-25.43a10.69 10.69 0 0 0-15.11 0z"/><path id="F" d="M1345.52 384a10.67 10.67 0 0 0 6-9.58v-40.3a10.68 10.68 0 0 0-10.68-10.68h-60.54l57.44 57.44a10.65 10.65 0 0 0 7.78 3.12z"/><path id="G" d="M1176.25 387.61l77.38 77.39a10.69 10.69 0 0 0 15.11 0l17.88-17.88a10.69 10.69 0 0 0 0-15.11l-43.9-43.9h-62.89a13.63 13.63 0 0 1-3.58-.5z"/><path id="H" d="M1818.71 385a12.79 12.79 0 0 1-1.52-.09l102.31 102.32v-66l-65.68-65.68-25.44 25.45a13.56 13.56 0 0 1-9.67 4z"/><path id="I" d="M179.76 560.71l25.44-25.43-25.44-25.44a10.69 10.69 0 0 0-15.11 0l-17.88 17.88a10.69 10.69 0 0 0 0 15.11l17.88 17.88a10.67 10.67 0 0 0 15.11 0z"/><path id="J" d="M427.05 500.55l-76.38-76.38a10.66 10.66 0 0 0-15.1 0l-17.89 17.88a10.69 10.69 0 0 0 0 15.11l43.12 43.11h63.52a13.67 13.67 0 0 1 2.73.28z"/><path id="K" d="M249.65,514a13.67,13.67,0,0,1,.85-4.72l-16.93,16.93a10.69,10.69,0,0,0,0,15.11l16.57,16.56a13.63,13.63,0,0,1-.49-3.58Z"/><path id="L" d="M259.75 567.44l77.38 77.38a10.67 10.67 0 0 0 15.11 0l17.88-17.88a10.69 10.69 0 0 0 0-15.11l-43.9-43.9h-62.89a13.63 13.63 0 0 1-3.58-.49z"/><path id="M" d="M257 505.33a10.67 10.67 0 0 0-4.39 8.62v40.3a10.68 10.68 0 0 0 10.68 10.68h59.89l-56.66-56.65a10.68 10.68 0 0 0-9.52-2.95z"/><path id="N" d="M1238.64 533.28h0a13.61 13.61 0 0 1 2.29-7.59 13.61 13.61 0 0 0-2.29 7.59z"/><path id="O" d="M620.5 12.42V-.5h-33.14l19.38 19.38a10.65 10.65 0 0 0 7.78 3.12 10.67 10.67 0 0 0 5.98-9.58z"/><path id="P" d="M251.65,151a13.67,13.67,0,0,1,.85-4.72l-16.93,16.93a10.69,10.69,0,0,0,0,15.11l16.57,16.56a13.63,13.63,0,0,1-.49-3.58Z"/><path id="Q" d="M507.44,955.7a10.68,10.68,0,0,0,0-15.1l-17.89-17.89a10.68,10.68,0,0,0-15.1,0l-81.79,81.79h66Z"/><path id="R" d="M532.17,965.33a10.68,10.68,0,0,0-15.1,0l-17.89,17.89a10.68,10.68,0,0,0,0,15.1l6.18,6.18h66Z"/><path id="S" d="M1096.26 737.88l25.44-25.44-25.44-25.44a10.69 10.69 0 0 0-15.11 0l-17.88 17.88a10.69 10.69 0 0 0 0 15.11l17.88 17.88a10.69 10.69 0 0 0 15.11.01z"/><path id="T" d="M249.65,871a13.67,13.67,0,0,1,.85-4.72l-16.93,16.93a10.69,10.69,0,0,0,0,15.11l16.57,16.56a13.63,13.63,0,0,1-.49-3.58Z"/><path id="U" d="M259.75 924.44l77.38 77.38a10.61 10.61 0 0 0 4.48 2.68h6.15a10.61 10.61 0 0 0 4.48-2.68l17.88-17.88a10.69 10.69 0 0 0 0-15.11l-43.9-43.9h-62.89a13.63 13.63 0 0 1-3.58-.49z"/></defs></svg>